<svg height="110.75" viewBox="0 0 405.563 110.75" width="405.563" xmlns="http://www.w3.org/2000/svg"><path d="m142.3 511.012 1.581-71.537 13.174 71.537h14.887l12.385-71.012 1.976 71.01h16.732l-1.845-106.71h-24.372l-12.648 62.051-11.725-62.051h-25.295l-1.844 106.713h16.994zm125.88-2.635a23.494 23.494 0 0 0 10.078-12.121 52.625 52.625 0 0 0 3.03-18.839v-39.655q0-11.065-3.03-18.839a23.229 23.229 0 0 0 -10.077-11.923q-7.05-4.149-19.169-4.15-11.989 0-18.971 4.15a23.29 23.29 0 0 0 -10.012 11.923q-3.029 7.777-3.029 18.839v39.655a52.581 52.581 0 0 0 3.03 18.839 23.559 23.559 0 0 0 10.012 12.121q6.981 4.215 18.971 4.215 12.119 0 19.168-4.215zm-24.5-14.36a9.049 9.049 0 0 1 -2.108-4.743 37.466 37.466 0 0 1 -.461-5.929v-51.379a32.7 32.7 0 0 1 .527-6 9.16 9.16 0 0 1 2.239-4.677 6.677 6.677 0 0 1 5.138-1.844q3.687 0 5.4 1.844a9.191 9.191 0 0 1 2.239 4.677 32.88 32.88 0 0 1 .527 6v51.379a33.176 33.176 0 0 1 -.527 5.929 9.225 9.225 0 0 1 -2.239 4.743q-1.714 1.846-5.4 1.844t-5.338-1.844zm85.3 17v-89.196h15.941v-17.521h-55.727v17.522h16.073v89.191h23.713zm75.027-2.635a23.49 23.49 0 0 0 10.078-12.121 52.624 52.624 0 0 0 3.031-18.839v-39.66q0-11.065-3.031-18.839a23.224 23.224 0 0 0 -10.078-11.923q-7.049-4.149-19.169-4.15-11.989 0-18.971 4.15a23.29 23.29 0 0 0 -10.012 11.923q-3.033 7.774-3.03 18.839v39.655a52.581 52.581 0 0 0 3.03 18.839 23.559 23.559 0 0 0 10.012 12.121q6.982 4.215 18.971 4.215 12.12 0 19.169-4.215zm-24.5-14.36a9.065 9.065 0 0 1 -2.108-4.743 37.466 37.466 0 0 1 -.461-5.929v-51.384a32.7 32.7 0 0 1 .527-6 9.16 9.16 0 0 1 2.239-4.677 6.679 6.679 0 0 1 5.138-1.844q3.687 0 5.4 1.844a9.193 9.193 0 0 1 2.24 4.677 32.88 32.88 0 0 1 .527 6v51.379a33.176 33.176 0 0 1 -.527 5.929 9.226 9.226 0 0 1 -2.24 4.743q-1.715 1.846-5.4 1.844t-5.342-1.844zm75.555 17v-42.959l2.5-4.216 15.414 47.165h23.977l-20.684-58.495 19.761-48.217h-23.055l-17.917 43.607v-43.607h-23.583v106.712h23.583zm74.828 0v-106.722h-23.59v106.712h23.582z" fill="none" stroke="#fff" transform="translate(-124.812 -402.344)"/></svg>