<svg height="110.75" viewBox="0 0 586.343 110.75" width="586.343" xmlns="http://www.w3.org/2000/svg"><path d="m143.283 660.012v-45.32h9.486a46.229 46.229 0 0 0 15.677-2.5 21.236 21.236 0 0 0 11.067-9.025q4.082-6.52 4.084-18.9a41.78 41.78 0 0 0 -3.03-16.8 22.149 22.149 0 0 0 -9.222-10.54q-6.195-3.621-15.81-3.623h-35.835v106.708h23.582zm0-90.113h7.773q4.743 0 6.982 1.844a8.166 8.166 0 0 1 2.833 4.941 38.572 38.572 0 0 1 .593 7.18 36.971 36.971 0 0 1 -.725 8.036 7.626 7.626 0 0 1 -2.964 4.743q-2.241 1.581-6.587 1.581h-7.905v-28.324zm101.377 87.478a23.494 23.494 0 0 0 10.078-12.121 52.647 52.647 0 0 0 3.03-18.839v-39.655q0-11.065-3.03-18.839a23.229 23.229 0 0 0 -10.078-11.923q-7.05-4.149-19.169-4.15-11.99 0-18.971 4.15a23.3 23.3 0 0 0 -10.013 11.923q-3.032 7.774-3.03 18.839v39.655a52.6 52.6 0 0 0 3.03 18.839 23.566 23.566 0 0 0 10.013 12.121q6.981 4.215 18.971 4.215 12.12 0 19.169-4.215zm-24.5-14.36a9.065 9.065 0 0 1 -2.108-4.743 37.584 37.584 0 0 1 -.461-5.929v-51.379a32.7 32.7 0 0 1 .527-6 9.161 9.161 0 0 1 2.24-4.677 6.676 6.676 0 0 1 5.138-1.844q3.687 0 5.4 1.844a9.185 9.185 0 0 1 2.24 4.677 32.88 32.88 0 0 1 .527 6v51.379a33.176 33.176 0 0 1 -.527 5.929 9.218 9.218 0 0 1 -2.24 4.743q-1.713 1.846-5.4 1.844t-5.341-1.844zm75.555 16.995v-47.823h6.719l11.725 47.823h24.373l-14.632-51.644a21.369 21.369 0 0 0 8.1-6.258 21.843 21.843 0 0 0 3.887-8.892 58.756 58.756 0 0 0 1.054-11.726q0-11.2-4.414-17.324a22.694 22.694 0 0 0 -12.318-8.5 65.473 65.473 0 0 0 -18.707-2.372h-29.374v106.716h23.582zm0-90.9h7.641q6.718 0 9.222 3.82t2.5 10.671a25.8 25.8 0 0 1 -1.12 8.1 9.44 9.44 0 0 1 -3.886 5.138q-2.766 1.777-7.773 1.778h-6.589v-29.51zm88.794 90.9v-89.191h15.941v-17.521h-55.733v17.522h16.073v89.191h23.71zm48.876 0v-47.428h19.629v-16.468h-19.634v-26.876h22.528v-15.94h-46.108v106.712h23.58zm83.326-2.635a23.49 23.49 0 0 0 10.078-12.121 52.624 52.624 0 0 0 3.031-18.839v-39.655q0-11.065-3.031-18.839a23.224 23.224 0 0 0 -10.083-11.923q-7.049-4.149-19.169-4.15-11.989 0-18.971 4.15a23.29 23.29 0 0 0 -10.012 11.923q-3.033 7.774-3.03 18.839v39.655a52.581 52.581 0 0 0 3.03 18.839 23.559 23.559 0 0 0 10.012 12.121q6.983 4.215 18.971 4.215 12.12 0 19.169-4.215zm-24.5-14.36a9.065 9.065 0 0 1 -2.108-4.743 37.466 37.466 0 0 1 -.461-5.929v-51.379a32.7 32.7 0 0 1 .527-6 9.16 9.16 0 0 1 2.239-4.677 6.677 6.677 0 0 1 5.138-1.844q3.687 0 5.4 1.844a9.193 9.193 0 0 1 2.24 4.677 32.969 32.969 0 0 1 .527 6v51.379a33.269 33.269 0 0 1 -.527 5.929 9.226 9.226 0 0 1 -2.24 4.743q-1.715 1.846-5.4 1.844t-5.346-1.844zm100.059 16.995v-15.941h-24.5v-90.771h-23.596v106.712h48.087zm33.989 0v-106.712h-23.591v106.712h23.582zm65.673-2.635a23.494 23.494 0 0 0 10.068-12.121 52.625 52.625 0 0 0 3.03-18.839v-39.655q0-11.065-3.03-18.839a23.229 23.229 0 0 0 -10.077-11.923q-7.05-4.149-19.169-4.15-11.99 0-18.971 4.15a23.29 23.29 0 0 0 -10.012 11.923q-3.033 7.774-3.03 18.839v39.655a52.581 52.581 0 0 0 3.03 18.839 23.559 23.559 0 0 0 10.012 12.121q6.982 4.215 18.971 4.215 12.12 0 19.169-4.215zm-24.5-14.36a9.057 9.057 0 0 1 -2.108-4.743 37.466 37.466 0 0 1 -.461-5.929v-51.379a32.7 32.7 0 0 1 .527-6 9.16 9.16 0 0 1 2.239-4.677 6.677 6.677 0 0 1 5.138-1.844q3.687 0 5.4 1.844a9.191 9.191 0 0 1 2.239 4.677 32.88 32.88 0 0 1 .527 6v51.379a33.176 33.176 0 0 1 -.527 5.929 9.225 9.225 0 0 1 -2.239 4.743q-1.714 1.846-5.4 1.844t-5.348-1.844z" fill="none" stroke="#fff" transform="translate(-119.188 -551.344)"/></svg>