<svg height="110.75" viewBox="0 0 280.562 110.75" width="280.562" xmlns="http://www.w3.org/2000/svg"><path d="m159.032 362.012v-89.191h15.941v-17.521h-55.727v17.522h16.072v89.191h23.714zm42.421 0 3.688-22.529h15.678l3.557 22.529h21.738l-19.894-106.712h-26.875l-20.157 106.712zm11.461-78.256 5.665 41.631h-11.33zm67.586 78.256v-47.823h6.719l11.725 47.823h24.373l-14.624-51.644a21.369 21.369 0 0 0 8.1-6.258 21.843 21.843 0 0 0 3.887-8.892 58.756 58.756 0 0 0 1.054-11.726q0-11.2-4.414-17.324a22.694 22.694 0 0 0 -12.318-8.5 65.478 65.478 0 0 0 -18.702-2.368h-29.384v106.712zm0-90.9h7.641q6.718 0 9.222 3.82t2.5 10.671a25.8 25.8 0 0 1 -1.12 8.1 9.44 9.44 0 0 1 -3.886 5.138q-2.766 1.778-7.773 1.778h-6.584v-29.51zm105.2 88.268a23.494 23.494 0 0 0 10.078-12.121 52.625 52.625 0 0 0 3.03-18.839v-39.658q0-11.065-3.03-18.839a23.229 23.229 0 0 0 -10.084-11.923q-7.05-4.149-19.169-4.15-11.99 0-18.971 4.15a23.29 23.29 0 0 0 -10.012 11.923q-3.033 7.774-3.03 18.839v39.655a52.581 52.581 0 0 0 3.03 18.839 23.559 23.559 0 0 0 10.012 12.121q6.981 4.215 18.971 4.215 12.12 0 19.169-4.215zm-24.5-14.36a9.049 9.049 0 0 1 -2.108-4.743 37.466 37.466 0 0 1 -.461-5.929v-51.382a32.7 32.7 0 0 1 .527-6 9.152 9.152 0 0 1 2.239-4.677 6.677 6.677 0 0 1 5.138-1.844q3.687 0 5.4 1.844a9.191 9.191 0 0 1 2.239 4.677 32.88 32.88 0 0 1 .527 6v51.379a33.176 33.176 0 0 1 -.527 5.929 9.225 9.225 0 0 1 -2.239 4.743q-1.715 1.846-5.4 1.844t-5.345-1.844z" fill="none" stroke="#fff" transform="translate(-118.75 -253.344)"/></svg>